<svg version="1.1" id="Layer_1" xmlns="http://www.w3.org/2000/svg" xmlns:xlink="http://www.w3.org/1999/xlink" x="0px" y="0px"
	 width="100%" viewBox="0 0 200 200" enable-background="new 0 0 200 200" xml:space="preserve">
<path fill="#000000" opacity="1.000000" stroke="none" 
	d="
M0.999999,164.000000 
	C1.000000,109.760765 1.000000,55.521523 1.000000,1.000000 
	C30.686964,1.000000 60.374825,1.000000 90.531204,1.428122 
	C89.811890,7.812161 94.214478,7.083307 97.999992,7.021882 
	C97.999992,9.422029 97.697350,11.457604 98.060524,13.366507 
	C98.920578,17.887039 96.577873,19.536001 92.716545,20.814247 
	C81.187294,24.630871 75.274620,37.414845 78.664505,49.273712 
	C81.863426,60.464577 94.735992,68.980209 108.443779,64.859184 
	C116.117378,62.552238 123.483109,53.592926 124.040009,46.080536 
	C125.158417,30.993734 118.871216,24.563702 110.673241,21.379559 
	C104.788063,19.093727 103.133003,16.462822 103.982468,10.962084 
	C104.179390,9.686879 104.156052,8.377661 104.233467,7.093952 
	C112.075943,7.309018 111.436295,5.543447 111.000000,1.000000 
	C140.948044,1.000000 170.896072,1.000000 201.000000,1.000000 
	C201.000000,55.020798 201.000000,109.041740 200.719849,163.830582 
	C192.402115,155.341553 184.460617,145.997864 176.244843,136.901901 
	C174.627518,135.111298 172.029541,133.371399 169.749557,133.176193 
	C163.710815,132.659134 157.598526,133.000854 151.477554,133.000854 
	C153.504364,139.130905 157.675095,140.713455 163.401306,140.081635 
	C166.385956,139.752319 169.531204,139.315598 171.993820,142.358597 
	C176.424515,147.833511 181.230042,153.003784 185.808350,158.361679 
	C186.624969,159.317368 187.100143,160.564835 187.718002,161.651245 
	C129.496185,161.651245 71.821678,161.651245 13.129304,161.651245 
	C18.038256,156.274506 22.909782,151.986237 26.430908,146.783951 
	C29.869965,141.702957 33.700607,138.962936 39.779434,140.024124 
	C45.290226,140.986160 48.262131,138.380630 50.144104,133.002777 
	C43.796787,133.002777 37.849239,132.876648 31.914104,133.092300 
	C30.447422,133.145584 28.612228,133.942520 27.643503,135.022751 
	C21.970253,141.348969 16.607445,147.953827 10.926480,154.272797 
	C7.835443,157.710999 4.322599,160.769974 0.999999,164.000000 
M74.950310,150.509079 
	C76.665703,151.671875 78.547012,153.939331 80.053780,153.713028 
	C81.867310,153.440643 83.810364,151.313095 84.879494,149.505081 
	C86.152527,147.352219 86.184265,144.478424 87.406990,142.280334 
	C91.332191,135.223984 86.970512,126.411102 81.192986,122.470642 
	C79.672020,121.433289 78.281349,119.149925 78.143448,117.338791 
	C77.740471,112.046638 78.000198,106.704018 78.000198,102.947922 
	C84.084671,98.177353 89.614777,94.451439 94.334221,89.887283 
	C96.742897,87.557846 100.780991,83.885590 96.135735,80.127426 
	C91.718910,76.554077 89.060753,80.940819 86.984467,83.693901 
	C81.429016,91.060204 74.006630,93.003433 65.283241,93.093163 
	C53.071732,93.218788 44.394550,100.343941 39.726849,110.854919 
	C39.278999,111.863419 39.589077,113.718025 40.276318,114.631226 
	C42.984833,118.230293 45.754192,117.665222 48.931126,113.554741 
	C51.394409,110.367599 54.260647,107.491898 56.947769,104.477768 
	C57.999992,111.572937 57.624302,117.762009 58.102200,123.884438 
	C58.613560,130.435547 57.401875,135.818405 51.757568,139.878098 
	C49.840164,141.257187 47.969307,143.359711 47.226517,145.525803 
	C46.500702,147.642380 46.342609,151.159912 47.590286,152.407883 
	C48.839058,153.656998 53.190105,153.932983 54.362003,152.782425 
	C61.547668,145.727722 70.820618,139.672775 68.990990,127.240181 
	C77.100113,131.080688 78.479874,134.292480 76.058739,142.107468 
	C75.273872,144.640854 74.943619,147.315079 74.950310,150.509079 
M114.326942,139.851013 
	C115.281876,143.068405 116.123589,146.325104 117.223030,149.492325 
	C118.362434,152.774673 120.551292,154.681686 124.316696,154.000565 
	C128.106842,153.314957 128.235886,150.509552 127.964386,147.583740 
	C127.847893,146.328461 127.547981,145.006897 126.984886,143.890182 
	C123.884148,137.740860 124.877098,132.724319 130.684052,128.718384 
	C131.645447,128.055176 132.087173,126.638618 132.769043,125.570206 
	C133.202011,125.847878 133.634995,126.125549 134.067963,126.403221 
	C133.520004,132.604858 133.778976,138.500992 138.608337,143.187180 
	C141.186920,145.689346 143.126816,148.900085 145.873581,151.160934 
	C147.712006,152.674133 150.452728,153.696014 152.807983,153.731735 
	C154.063583,153.750763 156.453171,151.156937 156.390915,149.833710 
	C156.284317,147.568481 155.261124,144.568985 153.560608,143.288467 
	C145.472565,137.198059 142.647263,129.411453 143.896255,119.527451 
	C144.497955,114.765770 144.000000,109.865150 144.000000,105.027443 
	C144.569290,104.824677 145.138580,104.621910 145.707870,104.419144 
	C148.278702,107.576569 150.896133,110.697502 153.406204,113.902504 
	C155.573212,116.669441 158.160156,118.315201 161.326385,115.889824 
	C164.213730,113.678093 163.500412,110.871140 161.682495,108.104225 
	C155.081390,98.057190 146.081909,92.867508 133.800858,92.801399 
	C129.730469,92.779488 125.338043,91.030891 121.711021,88.979019 
	C118.610588,87.225060 116.413795,83.888023 113.781967,81.286972 
	C111.620079,79.150391 108.587975,77.833725 106.667793,80.366158 
	C105.424911,82.005310 105.273041,86.291573 106.526787,87.676056 
	C110.988129,92.602638 114.846634,98.569550 122.149734,100.133400 
	C123.238792,100.366600 124.815834,101.842888 124.866928,102.812599 
	C125.138123,107.959579 125.078110,113.131065 124.915047,118.287170 
	C124.886658,119.184845 124.009811,120.331497 123.198586,120.884895 
	C116.776978,125.265610 112.793701,130.810349 114.326942,139.851013 
M57.037308,82.268852 
	C60.380173,90.327896 62.121971,91.615776 68.844490,90.998993 
	C74.403168,90.488976 78.228775,84.480209 76.985695,78.211845 
	C76.112930,73.810883 70.452141,70.860306 65.794525,71.528481 
	C59.752922,72.395203 58.062355,76.505928 57.037308,82.268852 
M131.096451,72.016243 
	C125.650505,74.778053 124.159729,77.555664 125.007072,83.362038 
	C125.826302,88.975731 131.606857,92.381035 137.934525,90.977531 
	C142.474533,89.970551 145.548492,84.524750 144.297119,79.705635 
	C142.575516,73.075768 140.846542,71.997475 131.096451,72.016243 
M107.245850,139.995468 
	C108.029861,137.894165 108.813881,135.792862 109.777771,133.209473 
	C103.524818,133.209473 98.445038,133.209473 93.206375,133.209473 
	C93.206375,135.488510 93.206375,137.555847 93.206375,139.999466 
	C97.697823,139.999466 101.994247,139.999466 107.245850,139.995468 
M136.608780,45.999844 
	C139.838531,46.242897 143.680878,45.799664 143.685928,42.195469 
	C143.691376,38.310452 139.602768,39.014217 136.731750,38.999920 
	C136.567230,38.999104 136.363525,38.936073 136.244049,39.009441 
	C134.495575,40.083153 132.758347,41.175163 131.018433,42.262817 
	C132.600052,43.508469 134.181656,44.754116 136.608780,45.999844 
M68.735085,45.781456 
	C69.376701,44.271885 70.970398,42.279575 70.492744,41.337509 
	C68.572693,37.550644 64.689987,39.088673 61.589092,39.173100 
	C60.487064,39.203102 58.356865,41.539650 58.574257,42.121456 
	C59.130051,43.608902 60.533463,45.283085 61.984821,45.803631 
	C63.756004,46.438881 65.922256,45.972599 68.735085,45.781456 
M138.847733,24.320910 
	C136.155197,25.106855 133.291763,25.563749 130.849823,26.832121 
	C129.794617,27.380205 128.950699,29.762840 129.250961,31.014677 
	C129.468384,31.921255 131.902252,33.082848 133.039917,32.816418 
	C135.324844,32.281311 137.665543,31.170631 139.474182,29.679897 
	C140.853714,28.542858 141.959763,26.433514 138.847733,24.320910 
M131.730225,58.961052 
	C133.077789,59.418743 134.443329,60.287548 135.768372,60.229664 
	C137.410629,60.157917 139.019333,59.318295 140.642517,58.810379 
	C140.147919,57.426403 140.012405,55.666676 139.062637,54.758976 
	C138.010315,53.753292 136.254272,53.269073 134.730408,53.028870 
	C133.021530,52.759491 131.229492,53.017536 129.473648,53.046101 
	C129.999329,54.883129 130.525009,56.720161 131.730225,58.961052 
M63.114662,60.636547 
	C65.188141,60.093098 67.245590,59.475250 69.338951,59.024036 
	C72.311348,58.383347 73.709663,56.351318 72.711403,53.762333 
	C72.389244,52.926826 69.313126,52.911411 67.510696,52.967396 
	C66.147110,53.009750 64.502075,53.415283 63.521244,54.274445 
	C61.802299,55.780170 59.586117,57.624538 63.114662,60.636547 
M68.992577,25.489450 
	C67.989906,25.001455 66.913895,24.010019 66.001678,24.142916 
	C64.617508,24.344566 62.453388,25.121931 62.245262,26.027941 
	C61.958462,27.276402 62.922417,29.080959 63.849400,30.252655 
	C64.564095,31.156017 66.009773,31.811913 67.196640,31.933968 
	C69.015152,32.120975 72.004356,32.403008 72.530762,31.499420 
	C74.043190,28.903297 72.987732,26.594168 68.992577,25.489450 
z"/>
<path fill="#000000" opacity="1.000000" stroke="none" 
	d="
M201.000000,167.000000 
	C201.000000,178.314804 201.000000,189.629623 201.000000,200.943039 
	C134.333313,200.941650 67.666634,200.941650 1.000000,200.941650 
	C1.000000,189.901321 1.000000,178.919312 1.324510,167.160400 
	C4.364355,167.255600 7.077776,168.881897 9.795304,168.888794 
	C67.566887,169.035309 125.339088,169.058090 183.110687,168.912338 
	C189.075348,168.897293 195.036972,167.666611 201.000000,167.000000 
M160.842590,183.991776 
	C161.917847,183.241684 162.993118,182.491592 164.068375,181.741501 
	C163.882980,181.161270 163.697586,180.581024 163.512192,180.000793 
	C160.589676,180.260925 156.607559,179.416183 154.955215,181.000793 
	C150.958633,184.833557 157.395370,187.224823 157.984573,190.992279 
	C156.240326,190.129074 154.975571,189.503159 152.354919,188.206223 
	C152.637756,190.623032 152.669250,193.262619 152.994751,193.299393 
	C155.661514,193.600632 158.528076,193.889496 161.010162,193.127441 
	C161.892914,192.856415 162.353638,189.611725 162.115448,187.844635 
	C161.953705,186.644638 160.239670,185.653870 159.659256,184.259750 
	C159.797256,184.145416 159.935257,184.031067 160.842590,183.991776 
M22.462870,177.991989 
	C21.821444,183.251770 21.180017,188.511566 20.510832,193.998978 
	C23.313675,193.998978 26.126350,194.015030 28.938782,193.995667 
	C35.013985,193.953873 37.561409,189.535812 34.707047,184.160782 
	C34.220909,183.245331 33.792870,181.927063 34.079388,181.032288 
	C36.316341,174.046539 34.929344,171.988449 27.749477,172.000641 
	C26.290913,172.003113 24.832338,172.000992 22.956030,172.000992 
	C22.956030,173.980301 22.956030,175.600937 22.462870,177.991989 
M123.260849,193.998962 
	C129.264603,193.604782 131.886673,189.363144 129.670685,184.059082 
	C129.074112,182.631165 128.988205,180.644623 129.468979,179.176895 
	C130.886856,174.848221 129.210922,172.101349 124.670578,172.008453 
	C122.547523,171.964996 120.422836,172.001022 118.101860,172.001022 
	C117.127922,179.477982 116.201859,186.587402 115.236435,193.998993 
	C117.730385,193.998993 120.038589,193.998993 123.260849,193.998962 
M179.999054,185.565674 
	C180.756409,179.192963 175.932571,179.968399 171.834030,179.724213 
	C172.280457,176.403671 172.681671,173.419327 173.093369,170.357101 
	C171.092361,170.357101 169.577789,170.357101 168.553406,170.357101 
	C167.478027,178.305450 166.458359,185.841934 165.403290,193.640213 
	C168.149994,195.540268 169.924149,195.598328 170.088654,191.029495 
	C170.194397,188.092743 169.966156,184.369263 175.191208,183.841507 
	C174.853455,187.422714 174.557236,190.563599 174.253510,193.784058 
	C175.853806,193.784058 177.272400,193.784058 178.797333,193.784058 
	C179.218384,191.220474 179.608734,188.843765 179.999054,185.565674 
M133.015579,188.413300 
	C135.568283,196.532013 136.716766,195.502167 145.099274,194.913589 
	C146.432404,194.819977 148.649445,193.744568 148.808868,192.834274 
	C149.532166,188.704605 149.664597,184.471436 150.033798,179.982193 
	C143.324829,180.989990 134.808487,176.714294 133.015579,188.413300 
M77.996895,181.254822 
	C77.283661,185.346100 76.570427,189.437378 75.857193,193.528641 
	C76.235138,193.862839 76.613091,194.197037 76.991043,194.531235 
	C78.662971,193.285889 80.334900,192.040558 81.352791,191.282379 
	C83.618996,192.330383 85.999100,193.431061 88.379204,194.531723 
	C88.744408,193.999237 89.109619,193.466736 89.474823,192.934235 
	C87.978683,190.948502 86.482552,188.962769 84.856659,186.804810 
	C86.887413,184.663132 88.902428,182.538071 90.927849,180.402023 
	C86.643158,176.326309 85.010513,181.664307 81.799561,182.908936 
	C82.241722,179.823685 82.173424,176.968704 83.111191,174.495102 
	C84.740326,170.197800 82.891212,169.689301 79.078537,170.177887 
	C78.713905,173.613571 78.356827,176.978104 77.996895,181.254822 
M60.119549,181.332077 
	C57.483196,184.064194 55.951637,186.829910 57.887295,190.871033 
	C60.102001,195.494720 64.016907,193.918808 67.343300,193.896912 
	C71.413658,193.870117 72.331482,190.280289 72.905151,187.214706 
	C73.550468,183.766327 71.720284,180.981232 68.355705,180.285339 
	C65.960808,179.789993 63.297886,180.590469 60.119549,181.332077 
M41.060696,181.435577 
	C40.406391,182.542084 39.090008,183.737915 39.224957,184.737915 
	C39.593742,187.470764 39.764896,191.362946 41.510323,192.500427 
	C43.874180,194.040955 47.863003,194.255249 50.699184,193.444595 
	C52.276848,192.993652 53.704548,189.356308 53.851997,187.068161 
	C54.274738,180.508148 49.286873,178.152161 41.060696,181.435577 
M99.999321,183.581665 
	C100.656288,179.508392 101.313248,175.435120 101.970207,171.361862 
	C101.503967,170.990112 101.037720,170.618362 100.571480,170.246628 
	C99.115479,171.657303 96.663200,172.892090 96.377647,174.509430 
	C95.202347,181.166336 94.685303,187.939453 93.926201,194.669846 
	C94.281555,194.969147 94.636917,195.268448 94.992271,195.567749 
	C96.320969,194.607422 98.393944,193.898880 98.821899,192.633835 
	C99.686852,190.077057 99.658836,187.218201 99.999321,183.581665 
M105.674019,193.996552 
	C106.773567,193.622131 108.375687,193.582062 108.885719,192.815445 
	C111.098976,189.488708 108.410606,184.304489 112.958221,181.725876 
	C113.094208,181.648773 113.028496,181.075958 112.940895,180.767136 
	C112.347839,178.676498 111.723534,176.594742 111.010231,174.173737 
	C110.239784,174.173737 108.811081,174.173737 107.862549,174.173737 
	C103.920464,180.541962 105.450584,187.392319 105.674019,193.996552 
z"/>
<path fill="#EBE0FF" opacity="1.000000" stroke="none" 
	d="
M201.000000,166.625000 
	C195.036972,167.666611 189.075348,168.897293 183.110687,168.912338 
	C125.339088,169.058090 67.566887,169.035309 9.795304,168.888794 
	C7.077776,168.881897 4.364355,167.255600 1.324510,166.691742 
	C1.000000,166.250000 1.000000,165.500000 0.999999,164.375000 
	C4.322599,160.769974 7.835443,157.710999 10.926480,154.272797 
	C16.607445,147.953827 21.970253,141.348969 27.643503,135.022751 
	C28.612228,133.942520 30.447422,133.145584 31.914104,133.092300 
	C37.849239,132.876648 43.796787,133.002777 50.144104,133.002777 
	C48.262131,138.380630 45.290226,140.986160 39.779434,140.024124 
	C33.700607,138.962936 29.869965,141.702957 26.430908,146.783951 
	C22.909782,151.986237 18.038256,156.274506 13.129304,161.651245 
	C71.821678,161.651245 129.496185,161.651245 187.718002,161.651245 
	C187.100143,160.564835 186.624969,159.317368 185.808350,158.361679 
	C181.230042,153.003784 176.424515,147.833511 171.993820,142.358597 
	C169.531204,139.315598 166.385956,139.752319 163.401306,140.081635 
	C157.675095,140.713455 153.504364,139.130905 151.477554,133.000854 
	C157.598526,133.000854 163.710815,132.659134 169.749557,133.176193 
	C172.029541,133.371399 174.627518,135.111298 176.244843,136.901901 
	C184.460617,145.997864 192.402115,155.341553 200.719849,164.299240 
	C201.000000,164.750000 201.000000,165.500000 201.000000,166.625000 
z"/>
<path fill="#EBE0FF" opacity="1.000000" stroke="none" 
	d="
M110.531601,1.000000 
	C111.436295,5.543447 112.075943,7.309018 104.233467,7.093952 
	C104.156052,8.377661 104.179390,9.686879 103.982468,10.962084 
	C103.133003,16.462822 104.788063,19.093727 110.673241,21.379559 
	C118.871216,24.563702 125.158417,30.993734 124.040009,46.080536 
	C123.483109,53.592926 116.117378,62.552238 108.443779,64.859184 
	C94.735992,68.980209 81.863426,60.464577 78.664505,49.273712 
	C75.274620,37.414845 81.187294,24.630871 92.716545,20.814247 
	C96.577873,19.536001 98.920578,17.887039 98.060524,13.366507 
	C97.697350,11.457604 97.999992,9.422029 97.999992,7.021882 
	C94.214478,7.083307 89.811890,7.812161 90.999863,1.428122 
	C97.354401,1.000000 103.708794,1.000000 110.531601,1.000000 
M111.000710,42.503372 
	C111.769653,47.929665 115.542610,43.584400 118.039871,45.384033 
	C117.928680,43.038528 117.857651,41.540081 117.741890,39.098015 
	C115.050926,40.091579 113.028076,40.838459 111.000710,42.503372 
M99.667984,40.004459 
	C99.000999,41.512993 98.334015,43.021530 97.594032,44.695179 
	C100.773598,44.695179 102.825508,44.695179 105.065163,44.695179 
	C104.960625,42.986843 104.875488,41.595615 104.777855,40.000191 
	C103.158356,40.000191 101.872223,40.000191 99.667984,40.004459 
M86.582680,40.000195 
	C81.942261,40.169632 84.537117,42.989021 84.393044,44.836178 
	C86.700844,44.836178 88.628304,44.836178 90.881363,44.836178 
	C91.007263,42.153290 91.926773,39.330818 86.582680,40.000195 
z"/>
<path fill="#EBE0FF" opacity="1.000000" stroke="none" 
	d="
M74.677864,150.216980 
	C74.943619,147.315079 75.273872,144.640854 76.058739,142.107468 
	C78.479874,134.292480 77.100113,131.080688 68.990990,127.240181 
	C70.820618,139.672775 61.547668,145.727722 54.362003,152.782425 
	C53.190105,153.932983 48.839058,153.656998 47.590286,152.407883 
	C46.342609,151.159912 46.500702,147.642380 47.226517,145.525803 
	C47.969307,143.359711 49.840164,141.257187 51.757568,139.878098 
	C57.401875,135.818405 58.613560,130.435547 58.102200,123.884438 
	C57.624302,117.762009 57.999992,111.572937 56.947769,104.477768 
	C54.260647,107.491898 51.394409,110.367599 48.931126,113.554741 
	C45.754192,117.665222 42.984833,118.230293 40.276318,114.631226 
	C39.589077,113.718025 39.278999,111.863419 39.726849,110.854919 
	C44.394550,100.343941 53.071732,93.218788 65.283241,93.093163 
	C74.006630,93.003433 81.429016,91.060204 86.984467,83.693901 
	C89.060753,80.940819 91.718910,76.554077 96.135735,80.127426 
	C100.780991,83.885590 96.742897,87.557846 94.334221,89.887283 
	C89.614777,94.451439 84.084671,98.177353 78.000198,102.947922 
	C78.000198,106.704018 77.740471,112.046638 78.143448,117.338791 
	C78.281349,119.149925 79.672020,121.433289 81.192986,122.470642 
	C86.970512,126.411102 91.332191,135.223984 87.406990,142.280334 
	C86.184265,144.478424 86.152527,147.352219 84.879494,149.505081 
	C83.810364,151.313095 81.867310,153.440643 80.053780,153.713028 
	C78.547012,153.939331 76.665703,151.671875 74.677864,150.216980 
z"/>
<path fill="#EBE0FF" opacity="1.000000" stroke="none" 
	d="
M114.176590,139.440598 
	C112.793701,130.810349 116.776978,125.265610 123.198586,120.884895 
	C124.009811,120.331497 124.886658,119.184845 124.915047,118.287170 
	C125.078110,113.131065 125.138123,107.959579 124.866928,102.812599 
	C124.815834,101.842888 123.238792,100.366600 122.149734,100.133400 
	C114.846634,98.569550 110.988129,92.602638 106.526787,87.676056 
	C105.273041,86.291573 105.424911,82.005310 106.667793,80.366158 
	C108.587975,77.833725 111.620079,79.150391 113.781967,81.286972 
	C116.413795,83.888023 118.610588,87.225060 121.711021,88.979019 
	C125.338043,91.030891 129.730469,92.779488 133.800858,92.801399 
	C146.081909,92.867508 155.081390,98.057190 161.682495,108.104225 
	C163.500412,110.871140 164.213730,113.678093 161.326385,115.889824 
	C158.160156,118.315201 155.573212,116.669441 153.406204,113.902504 
	C150.896133,110.697502 148.278702,107.576569 145.707870,104.419144 
	C145.138580,104.621910 144.569290,104.824677 144.000000,105.027443 
	C144.000000,109.865150 144.497955,114.765770 143.896255,119.527451 
	C142.647263,129.411453 145.472565,137.198059 153.560608,143.288467 
	C155.261124,144.568985 156.284317,147.568481 156.390915,149.833710 
	C156.453171,151.156937 154.063583,153.750763 152.807983,153.731735 
	C150.452728,153.696014 147.712006,152.674133 145.873581,151.160934 
	C143.126816,148.900085 141.186920,145.689346 138.608337,143.187180 
	C133.778976,138.500992 133.520004,132.604858 134.067963,126.403221 
	C133.634995,126.125549 133.202011,125.847878 132.769043,125.570206 
	C132.087173,126.638618 131.645447,128.055176 130.684052,128.718384 
	C124.877098,132.724319 123.884148,137.740860 126.984886,143.890182 
	C127.547981,145.006897 127.847893,146.328461 127.964386,147.583740 
	C128.235886,150.509552 128.106842,153.314957 124.316696,154.000565 
	C120.551292,154.681686 118.362434,152.774673 117.223030,149.492325 
	C116.123589,146.325104 115.281876,143.068405 114.176590,139.440598 
z"/>
<path fill="#EBE0FF" opacity="1.000000" stroke="none" 
	d="
M57.022026,81.867111 
	C58.062355,76.505928 59.752922,72.395203 65.794525,71.528481 
	C70.452141,70.860306 76.112930,73.810883 76.985695,78.211845 
	C78.228775,84.480209 74.403168,90.488976 68.844490,90.998993 
	C62.121971,91.615776 60.380173,90.327896 57.022026,81.867111 
z"/>
<path fill="#EBE0FF" opacity="1.000000" stroke="none" 
	d="
M131.520157,72.008797 
	C140.846542,71.997475 142.575516,73.075768 144.297119,79.705635 
	C145.548492,84.524750 142.474533,89.970551 137.934525,90.977531 
	C131.606857,92.381035 125.826302,88.975731 125.007072,83.362038 
	C124.159729,77.555664 125.650505,74.778053 131.520157,72.008797 
z"/>
<path fill="#EBE0FF" opacity="1.000000" stroke="none" 
	d="
M106.768265,139.997467 
	C101.994247,139.999466 97.697823,139.999466 93.206375,139.999466 
	C93.206375,137.555847 93.206375,135.488510 93.206375,133.209473 
	C98.445038,133.209473 103.524818,133.209473 109.777771,133.209473 
	C108.813881,135.792862 108.029861,137.894165 106.768265,139.997467 
z"/>
<path fill="#EBE0FF" opacity="1.000000" stroke="none" 
	d="
M136.186035,45.999805 
	C134.181656,44.754116 132.600052,43.508469 131.018433,42.262814 
	C132.758347,41.175163 134.495575,40.083153 136.244049,39.009441 
	C136.363525,38.936073 136.567230,38.999104 136.731750,38.999920 
	C139.602768,39.014217 143.691376,38.310452 143.685928,42.195469 
	C143.680878,45.799664 139.838531,46.242897 136.186035,45.999805 
z"/>
<path fill="#EBE0FF" opacity="1.000000" stroke="none" 
	d="
M68.326370,45.882080 
	C65.922256,45.972599 63.756004,46.438881 61.984821,45.803631 
	C60.533463,45.283085 59.130051,43.608902 58.574257,42.121456 
	C58.356865,41.539650 60.487064,39.203102 61.589092,39.173100 
	C64.689987,39.088673 68.572693,37.550644 70.492744,41.337509 
	C70.970398,42.279575 69.376701,44.271885 68.326370,45.882080 
z"/>
<path fill="#EBE0FF" opacity="1.000000" stroke="none" 
	d="
M139.106445,24.615471 
	C141.959763,26.433514 140.853714,28.542858 139.474182,29.679897 
	C137.665543,31.170631 135.324844,32.281311 133.039917,32.816418 
	C131.902252,33.082848 129.468384,31.921255 129.250961,31.014677 
	C128.950699,29.762840 129.794617,27.380205 130.849823,26.832121 
	C133.291763,25.563749 136.155197,25.106855 139.106445,24.615471 
z"/>
<path fill="#EBE0FF" opacity="1.000000" stroke="none" 
	d="
M131.390457,58.759121 
	C130.525009,56.720161 129.999329,54.883129 129.473648,53.046101 
	C131.229492,53.017536 133.021530,52.759491 134.730408,53.028870 
	C136.254272,53.269073 138.010315,53.753292 139.062637,54.758976 
	C140.012405,55.666676 140.147919,57.426403 140.642517,58.810379 
	C139.019333,59.318295 137.410629,60.157917 135.768372,60.229664 
	C134.443329,60.287548 133.077789,59.418743 131.390457,58.759121 
z"/>
<path fill="#EBE0FF" opacity="1.000000" stroke="none" 
	d="
M62.855366,60.348984 
	C59.586117,57.624538 61.802299,55.780170 63.521244,54.274445 
	C64.502075,53.415283 66.147110,53.009750 67.510696,52.967396 
	C69.313126,52.911411 72.389244,52.926826 72.711403,53.762333 
	C73.709663,56.351318 72.311348,58.383347 69.338951,59.024036 
	C67.245590,59.475250 65.188141,60.093098 62.855366,60.348984 
z"/>
<path fill="#EBE0FF" opacity="1.000000" stroke="none" 
	d="
M69.325066,25.725441 
	C72.987732,26.594168 74.043190,28.903297 72.530762,31.499420 
	C72.004356,32.403008 69.015152,32.120975 67.196640,31.933968 
	C66.009773,31.811913 64.564095,31.156017 63.849400,30.252655 
	C62.922417,29.080959 61.958462,27.276402 62.245262,26.027941 
	C62.453388,25.121931 64.617508,24.344566 66.001678,24.142916 
	C66.913895,24.010019 67.989906,25.001455 69.325066,25.725441 
z"/>
<path fill="#ECE1FF" opacity="1.000000" stroke="none" 
	d="
M22.709450,177.606781 
	C22.956030,175.600937 22.956030,173.980301 22.956030,172.000992 
	C24.832338,172.000992 26.290913,172.003113 27.749477,172.000641 
	C34.929344,171.988449 36.316341,174.046539 34.079388,181.032288 
	C33.792870,181.927063 34.220909,183.245331 34.707047,184.160782 
	C37.561409,189.535812 35.013985,193.953873 28.938782,193.995667 
	C26.126350,194.015030 23.313675,193.998978 20.510832,193.998978 
	C21.180017,188.511566 21.821444,183.251770 22.709450,177.606781 
z"/>
<path fill="#ECE1FF" opacity="1.000000" stroke="none" 
	d="
M122.803825,193.998978 
	C120.038589,193.998993 117.730385,193.998993 115.236435,193.998993 
	C116.201859,186.587402 117.127922,179.477982 118.101860,172.001022 
	C120.422836,172.001022 122.547523,171.964996 124.670578,172.008453 
	C129.210922,172.101349 130.886856,174.848221 129.468979,179.176895 
	C128.988205,180.644623 129.074112,182.631165 129.670685,184.059082 
	C131.886673,189.363144 129.264603,193.604782 122.803825,193.998978 
z"/>
<path fill="#ECE1FF" opacity="1.000000" stroke="none" 
	d="
M179.999069,186.016357 
	C179.608734,188.843765 179.218384,191.220474 178.797333,193.784058 
	C177.272400,193.784058 175.853806,193.784058 174.253510,193.784058 
	C174.557236,190.563599 174.853455,187.422714 175.191208,183.841507 
	C169.966156,184.369263 170.194397,188.092743 170.088654,191.029495 
	C169.924149,195.598328 168.149994,195.540268 165.403290,193.640213 
	C166.458359,185.841934 167.478027,178.305450 168.553406,170.357101 
	C169.577789,170.357101 171.092361,170.357101 173.093369,170.357101 
	C172.681671,173.419327 172.280457,176.403671 171.834030,179.724213 
	C175.932571,179.968399 180.756409,179.192963 179.999069,186.016357 
z"/>
<path fill="#ECE1FF" opacity="1.000000" stroke="none" 
	d="
M133.015076,188.009949 
	C134.808487,176.714294 143.324829,180.989990 150.033798,179.982193 
	C149.664597,184.471436 149.532166,188.704605 148.808868,192.834274 
	C148.649445,193.744568 146.432404,194.819977 145.099274,194.913589 
	C136.716766,195.502167 135.568283,196.532013 133.015076,188.009949 
M138.051514,187.530380 
	C139.377518,188.677826 140.703522,189.825256 142.029526,190.972702 
	C143.005249,189.603165 144.307236,188.339600 144.802750,186.814087 
	C145.013062,186.166611 143.132614,184.061783 142.885056,184.170731 
	C141.339005,184.851013 139.986115,185.970200 138.051514,187.530380 
z"/>
<path fill="#EBE0FF" opacity="1.000000" stroke="none" 
	d="
M77.998322,180.798737 
	C78.356827,176.978104 78.713905,173.613571 79.078537,170.177887 
	C82.891212,169.689301 84.740326,170.197800 83.111191,174.495102 
	C82.173424,176.968704 82.241722,179.823685 81.799561,182.908936 
	C85.010513,181.664307 86.643158,176.326309 90.927849,180.402023 
	C88.902428,182.538071 86.887413,184.663132 84.856659,186.804810 
	C86.482552,188.962769 87.978683,190.948502 89.474823,192.934235 
	C89.109619,193.466736 88.744408,193.999237 88.379204,194.531723 
	C85.999100,193.431061 83.618996,192.330383 81.352791,191.282379 
	C80.334900,192.040558 78.662971,193.285889 76.991043,194.531235 
	C76.613091,194.197037 76.235138,193.862839 75.857193,193.528641 
	C76.570427,189.437378 77.283661,185.346100 77.998322,180.798737 
z"/>
<path fill="#ECE1FF" opacity="1.000000" stroke="none" 
	d="
M60.437065,181.072357 
	C63.297886,180.590469 65.960808,179.789993 68.355705,180.285339 
	C71.720284,180.981232 73.550468,183.766327 72.905151,187.214706 
	C72.331482,190.280289 71.413658,193.870117 67.343300,193.896912 
	C64.016907,193.918808 60.102001,195.494720 57.887295,190.871033 
	C55.951637,186.829910 57.483196,184.064194 60.437065,181.072357 
M67.083099,184.027298 
	C62.336903,183.369507 61.144688,185.563309 62.354038,189.771301 
	C68.227966,190.056747 69.465538,188.809357 67.083099,184.027298 
z"/>
<path fill="#ECE1FF" opacity="1.000000" stroke="none" 
	d="
M41.426247,181.230927 
	C49.286873,178.152161 54.274738,180.508148 53.851997,187.068161 
	C53.704548,189.356308 52.276848,192.993652 50.699184,193.444595 
	C47.863003,194.255249 43.874180,194.040955 41.510323,192.500427 
	C39.764896,191.362946 39.593742,187.470764 39.224957,184.737915 
	C39.090008,183.737915 40.406391,182.542084 41.426247,181.230927 
M45.271072,190.028778 
	C46.806370,189.473267 48.636734,189.235870 49.738941,188.213455 
	C50.212788,187.773926 49.507618,184.871918 48.748768,184.570007 
	C47.566898,184.099823 45.133980,184.418457 44.595592,185.267715 
	C43.881638,186.393921 44.481117,188.352753 45.271072,190.028778 
z"/>
<path fill="#ECE1FF" opacity="1.000000" stroke="none" 
	d="
M99.999199,184.032791 
	C99.658836,187.218201 99.686852,190.077057 98.821899,192.633835 
	C98.393944,193.898880 96.320969,194.607422 94.992271,195.567749 
	C94.636917,195.268448 94.281555,194.969147 93.926201,194.669846 
	C94.685303,187.939453 95.202347,181.166336 96.377647,174.509430 
	C96.663200,172.892090 99.115479,171.657303 100.571480,170.246628 
	C101.037720,170.618362 101.503967,170.990112 101.970207,171.361862 
	C101.313248,175.435120 100.656288,179.508392 99.999199,184.032791 
z"/>
<path fill="#ECE1FF" opacity="1.000000" stroke="none" 
	d="
M159.219849,184.569534 
	C160.239670,185.653870 161.953705,186.644638 162.115448,187.844635 
	C162.353638,189.611725 161.892914,192.856415 161.010162,193.127441 
	C158.528076,193.889496 155.661514,193.600632 152.994751,193.299393 
	C152.669250,193.262619 152.637756,190.623032 152.354919,188.206223 
	C154.975571,189.503159 156.240326,190.129074 157.984573,190.992279 
	C157.395370,187.224823 150.958633,184.833557 154.955215,181.000793 
	C156.607559,179.416183 160.589676,180.260925 163.512192,180.000793 
	C163.697586,180.581024 163.882980,181.161270 164.068375,181.741501 
	C162.993118,182.491592 161.917847,183.241684 160.359436,183.674622 
	C159.337387,183.320496 158.798508,183.283508 158.259644,183.246506 
	C158.579712,183.687515 158.899780,184.128525 159.219849,184.569534 
z"/>
<path fill="#EBE0FF" opacity="1.000000" stroke="none" 
	d="
M105.242813,193.977448 
	C105.450584,187.392319 103.920464,180.541962 107.862549,174.173737 
	C108.811081,174.173737 110.239784,174.173737 111.010231,174.173737 
	C111.723534,176.594742 112.347839,178.676498 112.940895,180.767136 
	C113.028496,181.075958 113.094208,181.648773 112.958221,181.725876 
	C108.410606,184.304489 111.098976,189.488708 108.885719,192.815445 
	C108.375687,193.582062 106.773567,193.622131 105.242813,193.977448 
z"/>
<path fill="#000000" opacity="1.000000" stroke="none" 
	d="
M111.002968,42.044357 
	C113.028076,40.838459 115.050926,40.091579 117.741890,39.098015 
	C117.857651,41.540081 117.928680,43.038528 118.039871,45.384033 
	C115.542610,43.584400 111.769653,47.929665 111.002968,42.044357 
z"/>
<path fill="#000000" opacity="1.000000" stroke="none" 
	d="
M100.127045,40.002327 
	C101.872223,40.000191 103.158356,40.000191 104.777855,40.000191 
	C104.875488,41.595615 104.960625,42.986843 105.065163,44.695179 
	C102.825508,44.695179 100.773598,44.695179 97.594032,44.695179 
	C98.334015,43.021530 99.000999,41.512993 100.127045,40.002327 
z"/>
<path fill="#000000" opacity="1.000000" stroke="none" 
	d="
M87.041367,40.000034 
	C91.926773,39.330818 91.007263,42.153290 90.881363,44.836178 
	C88.628304,44.836178 86.700844,44.836178 84.393044,44.836178 
	C84.537117,42.989021 81.942261,40.169632 87.041367,40.000034 
z"/>
<path fill="#000000" opacity="1.000000" stroke="none" 
	d="
M138.310379,187.237183 
	C139.986115,185.970200 141.339005,184.851013 142.885056,184.170731 
	C143.132614,184.061783 145.013062,186.166611 144.802750,186.814087 
	C144.307236,188.339600 143.005249,189.603165 142.029526,190.972702 
	C140.703522,189.825256 139.377518,188.677826 138.310379,187.237183 
z"/>
<path fill="#000000" opacity="1.000000" stroke="none" 
	d="
M67.461250,184.196014 
	C69.465538,188.809357 68.227966,190.056747 62.354038,189.771301 
	C61.144688,185.563309 62.336903,183.369507 67.461250,184.196014 
z"/>
<path fill="#000000" opacity="1.000000" stroke="none" 
	d="
M44.893631,189.991287 
	C44.481117,188.352753 43.881638,186.393921 44.595592,185.267715 
	C45.133980,184.418457 47.566898,184.099823 48.748768,184.570007 
	C49.507618,184.871918 50.212788,187.773926 49.738941,188.213455 
	C48.636734,189.235870 46.806370,189.473267 44.893631,189.991287 
z"/>
<path fill="#000000" opacity="1.000000" stroke="none" 
	d="
M159.439545,184.414642 
	C158.899780,184.128525 158.579712,183.687515 158.259644,183.246506 
	C158.798508,183.283508 159.337387,183.320496 159.974762,183.637115 
	C159.935257,184.031067 159.797256,184.145416 159.439545,184.414642 
z"/>
</svg>